<svg xmlns="http://www.w3.org/2000/svg" viewBox="0 0 218.92 67.91"><defs><style>.cls-1,.cls-4,.cls-6{fill:none;stroke-miterlimit:10;}.cls-1,.cls-6{stroke:#0b9eda;}.cls-1{stroke-dasharray:6;}.cls-2{fill:#0b9eda;}.cls-3{fill:#828282;}.cls-4{stroke:#828282;stroke-width:2px;}.cls-5{fill:#cc2027;}</style></defs><title>flexible_2</title><g id="Layer_2" data-name="Layer 2"><g id="Layer_1-2" data-name="Layer 1"><line class="cls-1" x1="215.16" y1="13.84" x2="3.76" y2="13.84"/><polygon class="cls-2" points="30.43 13.84 9.67 27.69 16.59 13.84 9.67 0 30.43 13.84"/><rect class="cls-3" y="59.15" width="218.92" height="8.76"/><path class="cls-4" d="M7.07,36.64H46.24c7.83,0,7.83,7.84,7.83,7.84s0,7.83-7.83,7.83H7.07"/><path class="cls-4" d="M46.38,45.78s-1,3.48-7.11,3.63-12-10.16-21.9-10.16S-7.15,56.81,7.07,56.81h47c14.08,0,11.47-20.17,23.8-20.17"/><path class="cls-4" d="M148.12,36.64h39.17c7.83,0,7.83,7.84,7.83,7.84s0,7.83-7.83,7.83H148.12"/><path class="cls-4" d="M187.43,45.78s-1,3.48-7.11,3.63-12-10.16-21.9-10.16-24.52,17.56-10.3,17.56h47c14.08,0,11.46-20.17,23.8-20.17"/><path class="cls-4" d="M77.72,36.64h39.17c7.84,0,7.84,7.84,7.84,7.84s0,7.83-7.84,7.83H77.72"/><path class="cls-4" d="M117,45.78s-1,3.48-7.11,3.63S97.89,39.25,88,39.25,63.5,56.81,77.72,56.81h47c14.07,0,11.46-20.17,23.79-20.17"/><circle class="cls-5" cx="72.83" cy="38.14" r="3.15"/><path class="cls-6" d="M128.27,35s0-4.5,4.5-4.5,4.5,4.5,4.5,4.5a5,5,0,0,1-1.78,3.72"/><polygon class="cls-2" points="132.77 39.49 136.02 36.68 135.65 38.52 137.06 39.76 132.77 39.49"/><path class="cls-6" d="M57.78,35s0-4.5,4.5-4.5,4.5,4.5,4.5,4.5A5,5,0,0,1,65,38.71"/><polygon class="cls-2" points="62.28 39.49 65.53 36.68 65.16 38.52 66.57 39.76 62.28 39.49"/></g></g></svg>