<svg xmlns="http://www.w3.org/2000/svg" viewBox="0 0 216 144"><defs><style>.cls-1{fill:#0b9eda;}.cls-2{fill:#828282;}.cls-3{fill:#545554;}.cls-4,.cls-5{fill:none;stroke-miterlimit:10;}.cls-4{stroke:#cc2027;stroke-linecap:round;stroke-width:2px;}.cls-5{stroke:#0b9eda;}</style></defs><title>nozzlevalve_wall</title><g id="Layer_2" data-name="Layer 2"><g id="Layer_1-2" data-name="Layer 1"><polygon class="cls-1" points="36 72.16 15.23 86 22.16 72.16 15.23 58.31 36 72.16"/><path class="cls-2" d="M74.31,36a63,63,0,0,1,103.38,0H216V27H182.19A72,72,0,0,0,69.81,27H0v9Z"/><path class="cls-2" d="M177.69,108a63,63,0,0,1-103.38,0H0v9H69.81a72,72,0,0,0,112.38,0H216v-9Z"/><path class="cls-3" d="M97.31,113s-18.22,0-18.22-20.25V52.25S79.09,32,97.31,32"/><path class="cls-3" d="M133.76,32H97.31v81h36.45c18.23,0,36.45-20.25,36.45-20.25V52.25S152,32,133.76,32Z"/><path class="cls-4" d="M78.74,30.37a61.09,61.09,0,0,1,24.05-17"/><path class="cls-4" d="M79.09,113.85a61.09,61.09,0,0,0,24,17"/><path class="cls-5" d="M54,72c5.49,0,11-6.69,14.42-11.91"/><polygon class="cls-1" points="72 54 70.36 64.62 68.09 60.5 63.39 60.43 72 54"/><path class="cls-5" d="M54,72c5.49,0,11,6.69,14.42,11.91"/><polygon class="cls-1" points="72 90 63.39 83.57 68.09 83.5 70.36 79.38 72 90"/></g></g></svg>