<svg xmlns="http://www.w3.org/2000/svg" viewBox="0 0 225 155.17"><defs><style>.cls-1{fill:#828282;}.cls-2,.cls-4{fill:none;stroke-miterlimit:10;}.cls-2{stroke:#cc2027;stroke-width:2px;}.cls-3{fill:#0b9eda;}.cls-4{stroke:#000;stroke-dasharray:3 3;}.cls-5{font-size:14.21px;fill:#231f20;font-family:MyriadPro-Regular, Myriad Pro;}</style></defs><g id="Layer_2" data-name="Layer 2"><g id="Layer_1-2" data-name="Layer 1"><polygon class="cls-1" points="77.59 69.83 77.59 0 69.83 0 69.83 62.07 0 62.07 0 69.83 69.83 69.83 77.59 69.83"/><polygon class="cls-1" points="225 69.83 225 62.07 225 62.07 225 62.07 217.24 62.07 217.24 62.07 162.93 62.07 162.93 0 155.17 0 155.17 62.07 155.17 69.83 162.93 69.83 217.24 69.83 217.24 147.41 0 147.41 0 155.17 225 155.17 225 147.41 225 147.41 225 69.83 225 69.83"/><line class="cls-2" x1="155.17" y1="15.52" x2="155.17" y2="69.83"/><polygon class="cls-3" points="25.66 111.2 7.76 123.14 13.73 111.2 7.76 99.27 25.66 111.2"/><polygon class="cls-3" points="115.8 13.13 127.73 31.03 115.8 25.07 103.86 31.03 115.8 13.13"/><line class="cls-4" x1="54.31" y1="142.47" x2="54.31" y2="74.01"/><polygon points="54.31 147.41 57.16 140.45 54.31 142.1 51.47 140.45 54.31 147.41"/><polygon points="56.9 75.97 54.31 74.87 51.72 75.97 54.31 69.83 56.9 75.97"/><text class="cls-5" transform="translate(62.07 116.38)">D</text></g></g></svg>