<svg xmlns="http://www.w3.org/2000/svg" viewBox="0 0 225 225.22"><defs><style>.cls-1{font-size:12px;font-family:Calibri;}.cls-1,.cls-12,.cls-15{fill:#231f20;}.cls-2{letter-spacing:0em;}.cls-3{letter-spacing:-0.01em;}.cls-4{letter-spacing:-0.01em;}.cls-5{letter-spacing:-0.01em;}.cls-10,.cls-11,.cls-13,.cls-16,.cls-6{fill:none;stroke-miterlimit:10;}.cls-16,.cls-6{stroke:#0b9eda;}.cls-6{stroke-dasharray:6;}.cls-7{fill:#828282;}.cls-8{fill:#0b9eda;}.cls-9{letter-spacing:0em;}.cls-10,.cls-11,.cls-13{stroke:#000;}.cls-10{stroke-dasharray:3 3;}.cls-12{font-size:14.21px;}.cls-12,.cls-15{font-family:MyriadPro-Regular, Myriad Pro;}.cls-13{stroke-dasharray:3;}.cls-14{fill:#cc2027;}.cls-15{font-size:16.48px;}</style></defs><title>welded_joint</title><g id="Layer_2" data-name="Layer 2"><g id="Layer_1-2" data-name="Layer 1"><text class="cls-1" transform="translate(74.38 9.79)">U<tspan class="cls-2" x="7.7" y="0">p</tspan><tspan class="cls-3" x="13.95" y="0">s</tspan><tspan x="18.5" y="0">t</tspan><tspan class="cls-4" x="22.52" y="0">r</tspan><tspan x="26.55" y="0">eam </tspan><tspan class="cls-5" x="50.57" y="0">w</tspan><tspan x="59.04" y="0">eld</tspan></text><line class="cls-6" x1="195.82" y1="179.61" x2="2.98" y2="179.61"/><rect class="cls-7" y="137.09" width="225" height="9"/><rect class="cls-7" y="211.09" width="225" height="9"/><polygon class="cls-8" points="44.32 179.61 23.56 193.45 30.48 179.61 23.56 165.76 44.32 179.61"/><text class="cls-1" transform="translate(72.58 129.08)">D<tspan class="cls-9" x="7.38" y="0">o</tspan><tspan x="13.66" y="0">wn</tspan><tspan class="cls-3" x="28.55" y="0">s</tspan><tspan x="33.11" y="0">t</tspan><tspan class="cls-4" x="37.13" y="0">r</tspan><tspan x="41.15" y="0">eam </tspan><tspan class="cls-5" x="65.17" y="0">w</tspan><tspan x="73.64" y="0">eld</tspan></text><line class="cls-10" x1="211" y1="206.38" x2="211" y2="150.27"/><polygon points="211 211.32 213.85 204.35 211 206.01 208.16 204.35 211 211.32"/><polygon points="213.59 152.24 211 151.13 208.41 152.24 211 146.09 213.59 152.24"/><line class="cls-11" x1="161.48" y1="225.22" x2="161.48" y2="215.27"/><polygon points="164.07 217.24 161.48 216.13 158.89 217.24 161.48 211.09 164.07 217.24"/><line class="cls-11" x1="161.48" y1="192.42" x2="161.48" y2="202.37"/><polygon points="158.89 200.4 161.48 201.5 164.07 200.4 161.48 206.54 158.89 200.4"/><text class="cls-12" transform="translate(215.26 184.59)">D</text><text class="cls-12" transform="translate(167.93 208.85)">h</text><path class="cls-8" d="M66.37,215.59v-3s0-6,13.5-6,13.5,6,13.5,6v6s0,6-13.5,6-13.5-6-13.5-6Z"/><path class="cls-8" d="M66.37,141.59v-3s0-6,13.5-6,13.5,6,13.5,6v6s0,6-13.5,6-13.5-6-13.5-6Z"/><line class="cls-13" x1="163.11" y1="206.73" x2="52.64" y2="206.54"/><circle class="cls-14" cx="92.62" cy="211.09" r="1.77"/><path class="cls-13" d="M149.66,43.79c.61.61,7.88,8.07,7.69,18.46"/><line class="cls-6" x1="195.82" y1="61.81" x2="2.98" y2="61.81"/><rect class="cls-7" y="19.29" width="225" height="9"/><rect class="cls-7" y="93.29" width="225" height="9"/><polygon class="cls-8" points="44.32 61.81 23.56 75.65 30.48 61.81 23.56 47.96 44.32 61.81"/><text class="cls-15" transform="translate(160.41 56.67)">α</text><line class="cls-10" x1="211" y1="88.57" x2="211" y2="32.47"/><polygon points="211 93.52 213.85 86.55 211 88.2 208.16 86.55 211 93.52"/><polygon points="213.59 34.44 211 33.33 208.41 34.44 211 28.29 213.59 34.44"/><line class="cls-11" x1="161.48" y1="107.42" x2="161.48" y2="97.47"/><polygon points="164.07 99.44 161.48 98.33 158.89 99.44 161.48 93.29 164.07 99.44"/><line class="cls-11" x1="161.48" y1="74.62" x2="161.48" y2="84.56"/><polygon points="158.89 82.6 161.48 83.7 164.07 82.6 161.48 88.74 158.89 82.6"/><text class="cls-12" transform="translate(215.26 66.79)">D</text><text class="cls-12" transform="translate(167.93 91.05)">h</text><path class="cls-8" d="M66.37,97.79v-3s0-6,13.5-6,13.5,6,13.5,6v6s0,6-13.5,6-13.5-6-13.5-6Z"/><path class="cls-8" d="M66.37,23.79v-3s0-6,13.5-6,13.5,6,13.5,6v6s0,6-13.5,6-13.5-6-13.5-6Z"/><line class="cls-13" x1="163.3" y1="36.3" x2="49.66" y2="102.29"/><line class="cls-13" x1="163.11" y1="88.93" x2="52.64" y2="88.74"/><circle class="cls-14" cx="68.14" cy="91.77" r="1.77"/><path class="cls-16" d="M91.66,204.54s0-4.5,4.5-4.5,4.5,4.5,4.5,4.5a5,5,0,0,1-1.78,3.72"/><polygon class="cls-8" points="96.16 209.04 99.41 206.23 99.03 208.08 100.45 209.31 96.16 209.04"/></g></g></svg>