<svg xmlns="http://www.w3.org/2000/svg" viewBox="0 0 225.25 216.73"><defs><style>.cls-1{fill:#383838;}.cls-2{fill:#545554;}.cls-10,.cls-13,.cls-14,.cls-3,.cls-9{fill:none;stroke-miterlimit:10;}.cls-10,.cls-3{stroke:#000;}.cls-3{stroke-dasharray:3 3;}.cls-4{fill:#828282;}.cls-5{fill:#0b9eda;}.cls-6{font-size:12px;font-family:Calibri;}.cls-11,.cls-6{fill:#231f20;}.cls-7{letter-spacing:-0.09em;}.cls-8{letter-spacing:0em;}.cls-9{stroke:#0b9eda;stroke-width:2px;}.cls-10{stroke-dasharray:2 2;}.cls-11{font-size:14.21px;font-family:MyriadPro-Regular, Myriad Pro;}.cls-12{letter-spacing:0em;}.cls-13,.cls-14{stroke:#cc2027;}.cls-13{stroke-linecap:round;}</style></defs><title>choke_gallery_3</title><g id="Layer_2" data-name="Layer 2"><g id="Layer_1-2" data-name="Layer 1"><polygon class="cls-1" points="67.77 148.27 62.34 148.27 62.34 163.47 63.34 165.04 67.77 165.04 72.2 165.04 73.2 163.47 73.2 148.27 67.77 148.27"/><rect class="cls-2" x="59.27" y="164.15" width="3.07" height="0.92"/><rect class="cls-2" x="59.27" y="148.27" width="3.07" height="11.42"/><rect class="cls-2" x="59.27" y="169.48" width="3.07" height="1.35"/><rect class="cls-2" x="59.27" y="172.56" width="3.07" height="1.5"/><rect class="cls-2" x="59.27" y="175.78" width="3.07" height="5.47"/><rect class="cls-2" x="59.27" y="161.44" width="3.07" height="0.96"/><rect class="cls-2" x="59.27" y="166.81" width="3.07" height="0.92"/><rect class="cls-2" x="73.2" y="164.11" width="3.07" height="0.91"/><rect class="cls-2" x="73.2" y="148.27" width="3.07" height="11.39"/><rect class="cls-2" x="73.2" y="175.78" width="3.07" height="5.47"/><rect class="cls-2" x="73.2" y="169.43" width="3.07" height="1.41"/><rect class="cls-2" x="73.2" y="172.56" width="3.07" height="1.5"/><rect class="cls-2" x="73.2" y="161.4" width="3.07" height="0.96"/><rect class="cls-2" x="73.2" y="166.77" width="3.07" height="0.91"/><rect class="cls-2" x="59.27" y="139.29" width="17" height="8.98"/><line class="cls-3" x1="118" y1="54" x2="148.27" y2="21.47"/><polygon points="151.64 17.85 148.98 24.89 148.02 21.74 144.81 21.01 151.64 17.85"/><path class="cls-2" d="M86.58,51.33a30.72,30.72,0,0,1,27.81-27.26v-4A34.68,34.68,0,0,0,82.58,51.33Z"/><path class="cls-2" d="M147.74,56.78a30.7,30.7,0,0,1-27.91,28.46v4a34.67,34.67,0,0,0,31.9-32.45Z"/><path class="cls-2" d="M119.83,24.07a30.72,30.72,0,0,1,27.81,27.26h4a34.68,34.68,0,0,0-31.81-31.24Z"/><path class="cls-2" d="M114.39,85.24A30.7,30.7,0,0,1,86.48,56.78h-4a34.67,34.67,0,0,0,31.9,32.45Z"/><path class="cls-4" d="M59.27,181.25H50.75V173H0V196.8H14.42V185.7l9.75-9.1H47.12V181a3.32,3.32,0,0,0,3.43,3.2h8.72V196.8l-4.54,6.58H47.12v13.35H62.34V181.25"/><path class="cls-4" d="M73.2,181.25v35.48H88.11V203.38h-7.3l-4.54-6.58V184.18H85a3.32,3.32,0,0,0,3.43-3.2V138.07h.31a3.33,3.33,0,0,0,3.43-3.2V122.75a3.32,3.32,0,0,0-3.43-3.2H46.81a3.32,3.32,0,0,0-3.43,3.2v12.12a3.33,3.33,0,0,0,3.43,3.2h.31v11.59H24.17l-9.75-9.1v-11.1H0v23.78H50.75v-9.46h8.52v-4.49h17v4.49h8.06v37.47H76.27"/><polygon class="cls-5" points="17.98 163.27 7.13 170.03 10.75 163.27 7.13 156.52 17.98 163.27"/><path class="cls-4" d="M117,0A54,54,0,0,0,66.08,36H30.17L18,23.83V9H0V40.78H68.92a49.86,49.86,0,1,1,0,26.44H0V99H18V84.17L30.17,72H66.08A54,54,0,1,0,117,0Z"/><text class="cls-6" transform="translate(182.46 56.78)"><tspan class="cls-7">T</tspan><tspan x="4.78" y="0">op vi</tspan><tspan class="cls-8" x="28.3" y="0">e</tspan><tspan x="34.21" y="0">w</tspan></text><text class="cls-6" transform="translate(119.76 165.06)">Side vi<tspan class="cls-8" x="31.43" y="0">e</tspan><tspan x="37.34" y="0">w</tspan></text><polygon class="cls-5" points="67.77 199.24 64.16 194.17 67.77 195.86 71.39 194.17 67.77 199.24"/><polygon class="cls-5" points="18.98 54 5.46 63.02 9.96 54 5.46 44.98 18.98 54"/><line class="cls-9" x1="146.49" y1="54.19" x2="139.61" y2="54.19"/><polygon class="cls-5" points="133.96 54.19 141.92 50.94 140.03 54.19 141.92 57.45 133.96 54.19"/><line class="cls-9" x1="117.11" y1="24.61" x2="117.11" y2="31.49"/><polygon class="cls-5" points="117.11 37.14 113.86 29.18 117.11 31.07 120.36 29.18 117.11 37.14"/><line class="cls-9" x1="87.76" y1="54" x2="94.64" y2="54"/><polygon class="cls-5" points="100.28 54 92.33 57.25 94.21 54 92.33 50.75 100.28 54"/><line class="cls-9" x1="117.11" y1="83.95" x2="117.11" y2="77.07"/><polygon class="cls-5" points="117.11 71.42 120.36 79.38 117.11 77.49 113.86 79.38 117.11 71.42"/><path class="cls-9" d="M51.56,54c11.11.08,22,6.3,28.22,16.53,4.14,6.81,6.31,11,8.81,13.91"/><polygon class="cls-5" points="92.89 88.11 84.78 85.26 88.35 84.08 89.09 80.39 92.89 88.11"/><path class="cls-9" d="M51.56,54.19c11.11-.08,22-6.3,28.22-16.52,4.14-6.81,6.31-11,8.81-13.92"/><polygon class="cls-5" points="92.89 20.09 89.09 27.8 88.35 24.11 84.78 22.93 92.89 20.09"/><line class="cls-10" x1="144.9" y1="80.91" x2="150.41" y2="86.41"/><polygon points="142.41 78.41 144.49 83.37 145.09 81.09 147.36 80.49 142.41 78.41"/><polygon points="152.91 88.91 147.95 86.83 150.22 86.23 150.83 83.96 152.91 88.91"/><line class="cls-3" x1="94.02" y1="176.61" x2="94.02" y2="147.96"/><polygon points="94.02 181.56 96.87 174.59 94.02 176.24 91.18 174.59 94.02 181.56"/><polygon points="96.61 149.93 94.02 148.82 91.43 149.93 94.02 143.78 96.61 149.93"/><line class="cls-3" x1="33.27" y1="62.28" x2="33.27" y2="44.96"/><polygon points="33.27 67.22 36.12 60.26 33.27 61.91 30.43 60.26 33.27 67.22"/><polygon points="35.86 46.92 33.27 45.82 30.68 46.92 33.27 40.78 35.86 46.92"/><text class="cls-11" transform="translate(131.11 50.01)"><tspan class="cls-12">R</tspan><tspan x="7.7" y="0">c</tspan></text><text class="cls-11" transform="translate(98.44 166.77)">H</text><text class="cls-11" transform="translate(37.55 59.43)">D</text><path class="cls-13" d="M68.88,40.77a50,50,0,1,1,0,26.46"/><text class="cls-11" transform="translate(122.89 95.49)">gap</text><line class="cls-14" x1="50.72" y1="143.78" x2="50.72" y2="153.24"/><line class="cls-14" x1="50.72" y1="173.02" x2="50.75" y2="181.25"/><line class="cls-14" x1="84.33" y1="143.72" x2="84.33" y2="181.25"/></g></g></svg>