<svg xmlns="http://www.w3.org/2000/svg" viewBox="0 0 224.29 182.17"><defs><style>.cls-1{fill:#828282;}.cls-2{fill:#0b9eda;}.cls-3,.cls-5{fill:none;stroke-miterlimit:10;}.cls-3{stroke:#0b9eda;stroke-dasharray:6;}.cls-4{fill:#cc2027;}.cls-5{stroke:#000;stroke-dasharray:3 3;}.cls-6{font-size:16.48px;}.cls-6,.cls-8{fill:#231f20;font-family:MyriadPro-Regular, Myriad Pro;}.cls-7{font-size:10px;letter-spacing:0em;}.cls-8{font-size:14.21px;}</style></defs><g id="Layer_2" data-name="Layer 2"><g id="Layer_1-2" data-name="Layer 1"><polyline class="cls-1" points="0 61.91 0 182.17 0 182.17 0 182.17 224.29 182.17 224.29 173.17 9 173.17 9 71 56.6 71 65.61 71 65.61 71 65.61 0 56.6 0 56.6 62"/><polygon class="cls-1" points="131.72 62 131.72 0.48 122.72 0.48 122.72 62 122.72 71 131.72 71 224.29 71 224.29 62 131.72 62"/><polygon class="cls-2" points="94.17 24.85 82.23 6.95 94.17 12.91 106.1 6.95 94.17 24.85"/><polygon class="cls-2" points="191.41 146.29 173.51 158.23 179.47 146.29 173.51 134.36 191.41 146.29"/><path class="cls-3" d="M167.76,173.17A102.14,102.14,0,0,1,65.61,71"/><path class="cls-3" d="M167.75,116.66a45.4,45.4,0,0,1-45.4-45.4"/><circle class="cls-4" cx="167.76" cy="173.17" r="3.15"/><line class="cls-5" x1="25.31" y1="168.23" x2="25.31" y2="75.18"/><polygon points="25.31 173.17 28.16 166.21 25.31 167.86 22.47 166.21 25.31 173.17"/><polygon points="27.9 77.14 25.31 76.04 22.72 77.14 25.31 71 27.9 77.14"/><text class="cls-6" transform="translate(32.8 123.85)">D<tspan class="cls-7" x="10.98" y="0">man</tspan></text><line class="cls-5" x1="70.54" y1="44.74" x2="118.54" y2="44.74"/><polygon points="65.6 44.74 72.56 47.59 70.91 44.74 72.56 41.9 65.6 44.74"/><polygon points="116.58 47.34 117.68 44.74 116.58 42.15 122.72 44.74 116.58 47.34"/><text class="cls-8" transform="translate(88.4 60.65)">D</text></g></g></svg>