<svg xmlns="http://www.w3.org/2000/svg" viewBox="0 0 226.85 213.44"><defs><style>.cls-1,.cls-11,.cls-13,.cls-4{fill:none;stroke-miterlimit:10;}.cls-1{stroke:#0b9eda;stroke-dasharray:6;}.cls-2{fill:#828282;}.cls-3{fill:#0b9eda;}.cls-11,.cls-4{stroke:#000;}.cls-4{stroke-dasharray:3;}.cls-5{font-size:16.48px;}.cls-12,.cls-5,.cls-6{fill:#231f20;}.cls-12,.cls-5{font-family:MyriadPro-Regular, Myriad Pro;}.cls-6{font-size:12px;font-family:Calibri;}.cls-7{letter-spacing:-0.01em;}.cls-8{letter-spacing:-0.01em;}.cls-9{letter-spacing:-0.01em;}.cls-10{letter-spacing:-0.03em;}.cls-11{stroke-dasharray:3 3;}.cls-12{font-size:14.21px;}.cls-13{stroke:#cc2027;stroke-linecap:round;stroke-width:2px;}</style></defs><title>probes_2</title><g id="Layer_2" data-name="Layer 2"><g id="Layer_1-2" data-name="Layer 1"><line class="cls-1" x1="195.82" y1="58.75" x2="2.98" y2="58.75"/><rect class="cls-2" y="16.24" width="225" height="9"/><rect class="cls-2" y="90.24" width="225" height="9"/><polygon class="cls-3" points="44.32 58.75 23.56 72.6 30.48 58.75 23.56 44.91 44.32 58.75"/><polygon points="108.34 67.75 99.34 58.75 108.34 49.75 108.34 67.75"/><line class="cls-4" x1="126.52" y1="31.68" x2="76.74" y2="81.46"/><path class="cls-4" d="M120.62,37.58c.7.7,9,9.26,8.77,21.17"/><text class="cls-5" transform="translate(135.19 48.17)">α</text><text class="cls-6" transform="translate(68.3 9.79)">Ce<tspan class="cls-7" x="12.37" y="0">n</tspan><tspan x="18.56" y="0">t</tspan><tspan class="cls-8" x="22.58" y="0">r</tspan><tspan x="26.61" y="0">e mou</tspan><tspan class="cls-7" x="57.51" y="0">n</tspan><tspan class="cls-9" x="63.7" y="0">t</tspan><tspan x="67.59" y="0">ed</tspan></text><line class="cls-4" x1="195.82" y1="172.61" x2="2.98" y2="172.61"/><rect class="cls-2" y="130.09" width="225" height="9"/><rect class="cls-2" y="204.09" width="225" height="9"/><text class="cls-5" transform="translate(99.34 193.68)">D</text><polygon class="cls-3" points="44.32 172.61 23.56 186.45 30.48 172.61 23.56 158.76 44.32 172.61"/><line class="cls-4" x1="126.16" y1="145.5" x2="58.56" y2="213.09"/><path class="cls-4" d="M120.62,151.44c.7.7,9,9.25,8.77,21.17"/><text class="cls-5" transform="translate(135.19 162.02)">α</text><text class="cls-6" transform="translate(76.74 123.65)"><tspan class="cls-10">W</tspan><tspan x="10.26" y="0">all mou</tspan><tspan class="cls-7" x="46.45" y="0">n</tspan><tspan class="cls-9" x="52.64" y="0">t</tspan><tspan x="56.53" y="0">ed</tspan></text><polygon points="73.05 213.09 73.05 198.6 81.94 189.72 81.94 213.09 73.05 213.09"/><line class="cls-11" x1="211" y1="199.38" x2="211" y2="143.27"/><polygon points="211 204.32 213.85 197.35 211 199.01 208.16 197.35 211 204.32"/><polygon points="213.59 145.24 211 144.13 208.41 145.24 211 139.09 213.59 145.24"/><text class="cls-12" transform="translate(215.26 177.59)">D</text><line class="cls-11" x1="213.13" y1="85.4" x2="213.13" y2="29.29"/><polygon points="213.13 90.34 215.98 83.38 213.13 85.03 210.28 83.38 213.13 90.34"/><polygon points="215.72 31.26 213.13 30.16 210.54 31.26 213.13 25.11 215.72 31.26"/><text class="cls-12" transform="translate(217.39 63.61)">D</text><polyline class="cls-13" points="108.34 49.75 99.34 58.75 108.34 67.75"/><line class="cls-13" x1="73.05" y1="198.6" x2="81.94" y2="189.72"/></g></g></svg>