<svg xmlns="http://www.w3.org/2000/svg" viewBox="0 0 207 207"><defs><style>.cls-1{font-size:20.32px;fill:#231f20;font-family:MyriadPro-Regular, Myriad Pro;}.cls-2,.cls-3,.cls-6,.cls-7,.cls-8{fill:none;}.cls-2{stroke:#000;stroke-dasharray:3 3;}.cls-2,.cls-3,.cls-6,.cls-7{stroke-miterlimit:10;}.cls-3,.cls-6,.cls-7{stroke:#0b9eda;}.cls-3{stroke-dasharray:6;}.cls-4{fill:#828282;}.cls-5{fill:#0b9eda;}.cls-7{stroke-dasharray:5.75 5.75;}.cls-8{stroke:#cc2027;stroke-linecap:round;stroke-linejoin:round;stroke-width:2px;}</style></defs><g id="Layer_2" data-name="Layer 2"><g id="Layer_1-2" data-name="Layer 1"><text class="cls-1" transform="translate(95.04 89.64)">R</text><line class="cls-2" x1="138.24" y1="138.24" x2="75.9" y2="75.43"/><polygon points="79.12 75 76.51 76.04 75.44 78.65 72.95 72.46 79.12 75"/><path class="cls-3" d="M138.24,47.44S47,48.05,47,138.24"/><path class="cls-4" d="M0,207V138.24C0,0,138.24,0,138.24,0H207V9l-68.76-.36s-129.6,0-129.6,129.6V207Z"/><path class="cls-4" d="M95,207V138.24S95,95,138.24,95H207V86.4H138.24s-51.84,0-51.84,51.84V207Z"/><polygon class="cls-5" points="47.04 178.56 64.32 204.48 47.04 195.84 29.76 204.48 47.04 178.56"/><line class="cls-6" y1="138.24" x2="3" y2="138.24"/><line class="cls-7" x1="8.75" y1="138.24" x2="132.37" y2="138.24"/><polyline class="cls-6" points="135.24 138.24 138.24 138.24 138.24 135.24"/><line class="cls-7" x1="138.24" y1="129.49" x2="138.24" y2="5.87"/><line class="cls-6" x1="138.24" y1="3" x2="138.24"/><path class="cls-8" d="M138.24,8.64s-16.8.86-26.79,3.25-28.18,7-39.89,13.91c0,0-14.43,8.24-24.52,16.72"/></g></g></svg>