<svg xmlns="http://www.w3.org/2000/svg" viewBox="0 0 225.84 117.72"><defs><style>.cls-1{fill:#828282;}.cls-2,.cls-5,.cls-6{fill:none;}.cls-2,.cls-5{stroke:#000;stroke-miterlimit:10;}.cls-2{stroke-dasharray:3 3;}.cls-3{fill:#0b9eda;}.cls-4{font-size:16.48px;fill:#231f20;font-family:MyriadPro-Regular, Myriad Pro;}.cls-5{stroke-dasharray:3;}.cls-6{stroke:#cc2027;stroke-linecap:round;stroke-linejoin:round;stroke-width:2px;}</style></defs><g id="Layer_2" data-name="Layer 2"><g id="Layer_1-2" data-name="Layer 1"><polygon class="cls-1" points="0.13 25.57 96.93 25.56 173.19 44.79 225.84 44.79 225.84 38.61 173.87 38.61 96.96 19.38 0.13 19.38 0.13 25.57"/><polygon class="cls-1" points="225.84 98.5 173.64 98.5 97.38 117.72 0.13 117.72 0.13 111.54 96.69 111.54 173.6 92.31 225.84 92.31 225.84 98.5"/><line class="cls-2" x1="48.61" y1="106.66" x2="47.66" y2="29.75"/><polygon points="48.67 111.6 51.43 104.6 48.61 106.29 45.74 104.67 48.67 111.6"/><polygon points="50.28 31.68 47.67 30.61 45.1 31.75 47.61 25.57 50.28 31.68"/><polygon class="cls-3" points="30.74 70.07 9.98 83.92 16.9 70.07 9.98 56.23 30.74 70.07"/><text class="cls-4" transform="translate(55.1 75.35)">D</text><line class="cls-2" x1="197.78" y1="87.37" x2="197.78" y2="48.97"/><polygon points="197.78 92.31 200.63 85.35 197.78 87 194.94 85.35 197.78 92.31"/><polygon points="200.37 50.93 197.78 49.83 195.19 50.93 197.78 44.79 200.37 50.93"/><text class="cls-4" transform="translate(204.3 75.35)">D2</text><line class="cls-5" x1="94.97" y1="25.13" x2="0.13" y2="0.48"/><line class="cls-6" x1="96.93" y1="25.56" x2="173.19" y2="44.79"/><line class="cls-6" x1="97.55" y1="111.33" x2="173.6" y2="92.32"/><text class="cls-4" transform="translate(4.68 17)">α</text><line class="cls-5" x1="94.97" y1="25.13" x2="0.13" y2="25.57"/></g></g></svg>